<?xml version="1.0" standalone="no"?>
<!DOCTYPE svg PUBLIC "-//W3C//DTD SVG 20010904//EN"
 "http://www.w3.org/TR/2001/REC-SVG-20010904/DTD/svg10.dtd">
<svg version="1.0" xmlns="http://www.w3.org/2000/svg"
 width="700.000000pt" height="700.000000pt" viewBox="0 0 700.000000 700.000000"
 preserveAspectRatio="xMidYMid meet">
<metadata>
Created by potrace 1.11, written by Peter Selinger 2001-2013
</metadata>
<g transform="translate(0.000000,700.000000) scale(0.100000,-0.100000)"
fill="#000000" stroke="none">
<path d="M4809 6266 c-2 -2 -28 -7 -57 -10 -30 -3 -57 -8 -61 -11 -4 -2 -23
-7 -42 -10 -152 -27 -404 -154 -547 -277 -225 -192 -355 -358 -596 -757 -149
-245 -174 -276 -263 -317 -47 -23 -141 -39 -259 -46 l-42 -2 -54 -195 c-36
-127 -52 -198 -45 -203 6 -3 74 -7 151 -8 188 -2 219 -4 234 -13 7 -5 10 -12
7 -16 -3 -7 -72 -269 -99 -381 -2 -9 -45 -173 -94 -365 -50 -193 -121 -467
-157 -610 -389 -1524 -422 -1638 -518 -1788 -43 -68 -138 -170 -184 -198 -19
-12 -50 -23 -69 -26 l-35 -5 32 62 c76 145 33 301 -102 375 -49 26 -62 29
-159 29 -139 1 -191 -18 -275 -99 -78 -76 -108 -137 -108 -219 0 -170 153
-309 378 -343 98 -14 316 -3 420 22 453 109 760 381 1014 899 104 213 160 355
249 636 36 111 112 376 118 405 2 11 17 67 33 125 16 58 64 240 106 405 42
165 94 370 117 455 22 85 42 165 44 177 2 12 9 35 15 50 6 16 10 29 9 31 -1 1
20 90 46 197 l48 195 210 2 209 3 59 199 c32 109 58 200 56 201 -2 2 -89 5
-193 6 -177 2 -232 9 -221 28 3 4 7 20 10 36 6 31 33 122 77 260 104 320 265
605 436 774 98 95 166 133 247 135 48 1 51 -1 54 -25 2 -14 -14 -66 -34 -115
-61 -146 -51 -265 29 -352 25 -27 97 -65 142 -76 55 -14 151 -7 207 14 86 32
159 116 185 215 3 11 7 58 8 105 7 197 -88 329 -289 401 -52 19 -88 22 -252
26 -104 2 -192 2 -195 -1z"/>
</g>
</svg>
